<?xml version="1.0" ?><!DOCTYPE svg  PUBLIC '-//W3C//DTD SVG 1.1//EN'  'http://www.w3.org/Graphics/SVG/1.1/DTD/svg11.dtd'><svg enable-background="new 0 0 38 68" height="68px" id="Layer_1" version="1.1" viewBox="0 0 38 68" width="38px" xml:space="preserve" xmlns="http://www.w3.org/2000/svg" xmlns:xlink="http://www.w3.org/1999/xlink"><path d="M34,0H4C1.791,0,0,1.791,0,4v60c0,2.209,1.791,4,4,4h30c2.209,0,4-1.791,4-4V4C38,1.791,36.209,0,34,0z   M12,3h14c0.276,0,0.5,0.224,0.5,0.5S26.276,4,26,4H12c-0.276,0-0.5-0.224-0.5-0.5S11.724,3,12,3z M19,65c-1.104,0-2-0.896-2-2  s0.896-2,2-2s2,0.896,2,2S20.104,65,19,65z M35,59H3V6h32V59z" fill="#231F20"/></svg>